<svg id="Timer_Icon" data-name="Timer Icon" xmlns="http://www.w3.org/2000/svg" width="18.571" height="30"><defs><clipPath id="clip-path"><path id="Rectangle_13" data-name="Rectangle 13" class="cls-1" d="M0 0h18.571v30H0z"/></clipPath><style>.cls-1,.cls-3{fill:none;stroke:#5e5e5e;stroke-linecap:round;stroke-linejoin:round;stroke-width:2px}.cls-3{stroke-miterlimit:10}</style></defs><g id="Group_7" data-name="Group 7" style="clip-path:url(#clip-path)"><path id="Path_15" data-name="Path 15" class="cls-1" d="M7.5 31.071v-7.142c0-5.243 7.143-7.143 7.143-7.143s7.143-1.9 7.143-7.143V2.5" transform="translate(-5.357 -1.786)"/><path id="Path_16" data-name="Path 16" class="cls-3" d="M7.5 2.5v7.143c0 5.243 7.143 7.143 7.143 7.143s7.143 1.9 7.143 7.143v7.143" transform="translate(-5.357 -1.786)"/><path id="Line_3" data-name="Line 3" class="cls-1" transform="translate(.714 .714)" d="M0 0h17.143"/><path id="Line_4" data-name="Line 4" class="cls-1" transform="translate(.714 29.286)" d="M0 0h17.143"/><path id="Path_17" data-name="Path 17" class="cls-1" d="M24.642 29.683c-.957-.408-3.142-1.494-3.142-2.9V26.5h6.286v.285c0 1.404-2.186 2.49-3.144 2.898Z" transform="translate(-15.357 -18.93)"/><path id="Path_18" data-name="Path 18" class="cls-1" d="M24.642 67.363c-.957.408-3.142 1.494-3.142 2.9v.285h6.286v-.285c0-1.406-2.186-2.492-3.144-2.9Z" transform="translate(-15.357 -48.116)"/><path id="Path_19" data-name="Path 19" class="cls-3" d="M21.786 66.786v-7.143c0-5.243-7.143-7.143-7.143-7.143S7.5 54.4 7.5 59.643v7.143" transform="translate(-5.357 -37.5)"/><path id="Path_20" data-name="Path 20" class="cls-3" d="M7.5 2.5v7.143c0 5.243 7.143 7.143 7.143 7.143s7.143-1.9 7.143-7.143V2.5" transform="translate(-5.357 -1.786)"/></g></svg>